<?xml version="1.0" encoding="utf-8"?>
<!-- Generator: Adobe Illustrator 25.1.0, SVG Export Plug-In . SVG Version: 6.00 Build 0)  -->
<svg version="1.1" id="Layer_1" xmlns="http://www.w3.org/2000/svg" xmlns:xlink="http://www.w3.org/1999/xlink" x="0px" y="0px"
	 viewBox="0 0 633.34 419.95" style="enable-background:new 0 0 633.34 419.95;" xml:space="preserve">
<style type="text/css">
	.st0{clip-path:url(#SVGID_2_);}
	.st1{fill:#606060;}
	.st2{clip-path:url(#SVGID_4_);}
	.st3{fill:#F2998F;}
	.st4{fill:#F5B3A9;}
	.st5{fill:#335F72;}
	.st6{fill:#FFFFFF;}
	.st7{clip-path:url(#SVGID_6_);}
	.st8{clip-path:url(#SVGID_8_);}
	.st9{clip-path:url(#SVGID_10_);}
	.st10{clip-path:url(#SVGID_12_);}
	.st11{clip-path:url(#SVGID_14_);}
	.st12{clip-path:url(#SVGID_16_);}
	.st13{clip-path:url(#SVGID_18_);}
	.st14{clip-path:url(#SVGID_20_);}
	.st15{fill:#616161;}
	.st16{clip-path:url(#SVGID_22_);}
	.st17{clip-path:url(#SVGID_24_);}
	.st18{clip-path:url(#SVGID_26_);}
	.st19{clip-path:url(#SVGID_28_);}
	.st20{clip-path:url(#SVGID_30_);}
	.st21{clip-path:url(#SVGID_32_);}
	.st22{clip-path:url(#SVGID_34_);}
	.st23{clip-path:url(#SVGID_36_);}
	.st24{clip-path:url(#SVGID_38_);}
	.st25{clip-path:url(#SVGID_40_);}
	.st26{clip-path:url(#SVGID_42_);}
	.st27{clip-path:url(#SVGID_44_);}
	.st28{clip-path:url(#SVGID_46_);fill:#F4E6E6;}
	.st29{clip-path:url(#SVGID_46_);}
	.st30{clip-path:url(#SVGID_48_);}
	.st31{clip-path:url(#SVGID_50_);}
	.st32{clip-path:url(#SVGID_52_);}
	.st33{clip-path:url(#SVGID_54_);}
	.st34{clip-path:url(#SVGID_56_);}
	.st35{clip-path:url(#SVGID_58_);}
	.st36{clip-path:url(#SVGID_60_);}
	.st37{clip-path:url(#SVGID_62_);}
	.st38{fill:none;}
	.st39{clip-path:url(#SVGID_64_);}
	.st40{clip-path:url(#SVGID_66_);}
	.st41{font-family:'Poppins-SemiBold';}
	.st42{font-size:70.4299px;}
	.st43{clip-path:url(#SVGID_68_);}
	.st44{clip-path:url(#SVGID_70_);}
</style>
<g>
	<g>
		<g>
			<text transform="matrix(1 0 0 1 29.1676 368.6894)" class="st5 st41 st42">Nathalia Colling</text>
		</g>
	</g>
	<g>
		<path class="st5" d="M532.44,61.12c-0.97-0.3-1.99-0.55-3.04-0.73c-1.11-0.19-2.42-0.31-3.83-0.36c-0.03,0-0.06,0-0.09,0
			c-5.03-17.17-13.7-29.5-28.81-33.7c-1.32-0.42-2.71-0.75-4.13-0.99c-1.52-0.26-3.3-0.43-5.25-0.49c-1.06-0.06-1.96-0.08-2.82-0.08
			c-1.68,0-3.36,0.09-5.01,0.26c-19.21,1.4-48.43,9.52-72.87,28.13c-29.74,22.64-45.69,55.73-46.15,95.7v0.09
			c0.44,38.99,15.67,71.69,44.04,94.57c23.86,19.25,52.59,27.89,71.59,29.57c1.63,0.35,3.08,0.59,4.44,0.76l0.1,0.01
			c1.33,0.11,2.68,0.17,4.02,0.17c6.08,0,11.64-1.03,16.59-3.1c3.93-1.76,7.68-4.28,11.15-7.47l0.08-0.08
			c3.3-3.28,6.19-7.4,8.59-12.23l0.11-0.25c0.06-0.14,0.12-0.29,0.19-0.44c0.12-0.28,0.26-0.58,0.38-0.93
			c1.55-3.37,2.82-7.11,3.96-11.04c3.62-0.2,7.03-0.82,10.09-2.09c2.87-1.29,5.62-3.12,8.15-5.45l0.08-0.08
			c2.41-2.39,4.51-5.39,6.26-8.91l0.11-0.25c0.03-0.09,0.08-0.18,0.12-0.27c0.1-0.22,0.2-0.45,0.28-0.67
			c7.63-16.56,7.63-42.93,7.63-70.85v-0.59C558.4,107.69,558.4,68.36,532.44,61.12z M526.49,150.23c0,31.08-0.09,60.63-5.4,82.44
			c-0.79-0.1-1.63-0.24-2.6-0.45l-0.37-0.06c-12.75-1.1-32.12-6.91-48.24-19.92c-19.21-15.49-29.1-36.79-29.4-63.25
			c0.31-27.16,10.67-48.69,30.79-64.01c16.49-12.56,36.18-18.03,49.1-18.96l0.1-0.01c0.19-0.02,0.39,0,0.58-0.01
			c5.43,22.13,5.44,52.26,5.44,83.39V150.23z M516.19,247.52c-0.06,0.18-0.15,0.36-0.23,0.54c-0.09,0.19-0.17,0.38-0.25,0.57
			c-2.1,4.19-4.58,7.74-7.38,10.53c-2.99,2.75-6.2,4.9-9.46,6.36c-4.16,1.73-8.95,2.61-14.25,2.61c-1.16,0-2.33-0.05-3.47-0.14
			c-1.21-0.15-2.53-0.38-4.03-0.7l-0.37-0.06c-18.13-1.57-45.68-9.83-68.59-28.31c-26.96-21.74-41.43-52.89-41.85-90.02
			c0.44-38.63,15.18-69.27,43.83-91.08c23.43-17.84,51.41-25.62,69.78-26.94l0.1-0.01c1.46-0.16,2.95-0.24,4.44-0.24
			c0.75,0,1.55,0.02,2.56,0.08c1.74,0.06,3.26,0.2,4.52,0.41c1.18,0.2,2.32,0.48,3.4,0.82l0.1,0.03
			c12.34,3.42,19.8,13.7,24.35,28.23c-13.77,1.1-34.39,6.92-51.69,20.09c-21.33,16.24-32.78,39.97-33.11,68.7
			c0.32,27.95,11.24,51.4,31.59,67.81c17.07,13.77,37.62,19.96,51.24,21.18c0.81,0.17,1.51,0.27,2.22,0.38
			c-0.97,3.15-2.07,6.09-3.34,8.81L516.19,247.52z M552.51,149.91c0,27.32,0,53.13-7.14,68.5l-0.13,0.32
			c-0.03,0.1-0.08,0.2-0.13,0.3c-0.06,0.13-0.12,0.27-0.17,0.4c-1.44,2.88-3.14,5.31-5.05,7.22c-2.05,1.88-4.25,3.35-6.46,4.35
			c-1.87,0.78-4,1.21-6.23,1.48c5.1-22.37,5.17-51.6,5.17-82.26v-0.84c0-30.76-0.06-60.54-5.33-83.32c0.45,0.04,0.99,0.06,1.37,0.13
			c0.8,0.14,1.57,0.32,2.3,0.55l0.1,0.03c21.7,6.01,21.7,43.19,21.7,82.55V149.91z"/>
		<path class="st5" d="M286.31,24.76c-40.43,0-46.29,47.27-47.46,93.85c-0.79-0.8-1.57-1.6-2.36-2.4
			c-6.11-6.19-11.94-12.16-17.59-17.94c-30.9-31.62-55.31-56.61-76.49-67.52c-0.47-0.3-1.13-0.7-1.69-1.02l-0.16-0.08l0,0l0,0
			c-2.76-1.34-5.48-2.45-8.09-3.29l-0.07-0.02l-0.06-0.02c-3.64-0.98-7.63-1.48-11.84-1.48c-2.8,0-5.45,0.3-8.01,0.77
			c-0.4,0.07-0.81,0.13-1.21,0.21c-2.41,0.51-4.7,1.26-6.87,2.19c-0.2,0.08-0.43,0.11-0.62,0.2c-0.33,0.15-0.63,0.37-0.95,0.53
			c-0.46,0.23-0.95,0.4-1.4,0.65l-0.09,0.05c-0.28,0.17-0.55,0.42-0.83,0.59c-1.65,1-3.33,2.17-5.13,3.65
			c-0.11,0.09-0.23,0.15-0.35,0.25L94.97,34c-0.01,0.01-0.01,0.02-0.02,0.02c-1.29,1.09-2.35,2.29-3.28,3.35l-0.38,0.43
			c-0.11,0.13-0.24,0.33-0.36,0.46c-0.21,0.26-0.41,0.54-0.62,0.8c-0.52,0.66-1.03,1.28-1.56,2.04c-0.18,0.27-0.28,0.57-0.45,0.84
			c-0.44,0.66-0.92,1.23-1.34,1.92l-0.11,0.2c-0.03,0.06-0.06,0.12-0.09,0.19C73.9,66.33,72.85,104.73,72.85,148.94
			c0,58.25,0,124.26,47.77,124.26c40.44,0,46.39-43.59,47.5-90.48c43.64,50.07,75.71,77.79,100.67,86.97
			c1.7,0.66,4.6,1.58,7.64,2.32c0.23,0.06,0.46,0.11,0.69,0.17c1.61,0.37,3.22,0.7,4.73,0.87c0.09,0.01,0.2,0.02,0.3,0.03
			c0.07,0.01,0.15,0.03,0.22,0.04l0.11,0.01c0.15,0.01,0.3,0.01,0.44,0.02c1.39,0.11,2.74,0.14,3.49,0.14c0.03,0,0.05,0,0.08,0
			c0.01,0,0.02,0,0.03,0c0.1,0,0.24,0,0.31,0c0.01,0,0.03,0,0.04,0c2.56,0,5.08-0.29,7.54-0.7c0.47-0.08,0.94-0.16,1.4-0.25
			c0.54-0.11,1.12-0.17,1.64-0.3c1.33-0.33,3.29-0.88,5.19-1.67c0.07-0.03,0.12-0.07,0.18-0.1c0.07-0.03,0.15-0.03,0.21-0.06
			c1.36-0.61,2.67-1.43,3.99-2.22c0.54-0.32,1.14-0.58,1.66-0.92c0.51-0.34,0.97-0.78,1.47-1.14c1.24-0.9,2.49-1.77,3.62-2.81
			l0.24-0.23c0.05-0.04,0.09-0.07,0.14-0.11l0.08-0.08c0.06-0.06,0.11-0.14,0.17-0.2c0.37-0.37,0.77-0.76,1.04-1.06
			c0.84-0.9,1.43-1.81,2.13-2.72c0.52-0.67,1.07-1.28,1.56-2c1.28-1.88,2.38-3.76,3.34-5.56l0.05-0.1c0.04-0.09,0.1-0.23,0.15-0.34
			c0.04-0.08,0.09-0.14,0.13-0.22l0.11-0.24c0.06-0.14,0.12-0.29,0.19-0.43c0.12-0.28,0.26-0.59,0.39-0.93
			c10.62-23.01,10.62-59.93,10.62-99.02v-0.84c0-32.17,0-62.56-5.69-85.27C321.82,37.51,308.05,24.76,286.31,24.76z M317.96,246.79
			l-0.1,0.26c-0.05,0.15-0.26,0.6-0.47,1.06c-0.95,1.88-1.98,3.6-3.08,5.21c-0.42,0.62-0.96,1.23-1.44,1.85
			c-0.84,1.09-1.68,2.19-2.6,3.12c-0.06,0.06-0.12,0.12-0.18,0.18l-0.12,0.12c-1.02,0.93-2.09,1.7-3.15,2.49
			c-0.48,0.35-0.91,0.77-1.41,1.1c-0.4,0.27-0.82,0.44-1.23,0.69c-1.19,0.72-2.4,1.42-3.71,2.02c-1.68,0.69-3.51,1.17-5.38,1.57
			c-2.28,0.5-4.71,0.78-7.17,0.84c-0.47,0.02-0.89,0.12-1.37,0.12c-0.13,0-0.3-0.01-0.45-0.01c-0.74-0.01-1.49-0.05-2.23-0.09
			c-0.38-0.02-0.76-0.05-1.1-0.08c-1.4-0.18-2.84-0.44-4.31-0.77c-0.24-0.06-0.48-0.12-0.73-0.18c-1.53-0.37-3.08-0.8-4.67-1.33
			c-26.36-10.95-28.46-56.94-28.46-115.91c0-4.84,0.02-10.32,0.07-15.9C288.56,178.07,325.9,220.18,317.96,246.79z M125.83,31.04
			c1.71,0.21,3.35,0.53,4.92,0.94c2.3,0.74,4.7,1.72,7.16,2.91c24.48,13.95,24.48,62.65,24.48,114.21c0,5.89-0.04,11.87-0.08,17.82
			l-0.2-0.23c-45.24-51.94-84.28-96.83-68.8-121.66c0.55-0.81,1.08-1.64,1.66-2.38c0.16-0.2,0.32-0.43,0.47-0.62
			c1.07-1.3,2.19-2.5,3.37-3.57c0.15-0.12,0.27-0.19,0.41-0.31c1.42-1.16,2.88-2.18,4.34-3.1c0.46-0.28,0.93-0.54,1.4-0.78
			c1.57-0.81,3.3-1.38,5.05-1.91c0.79-0.24,1.53-0.57,2.36-0.75c2.56-0.56,5.25-0.89,8.13-0.89
			C122.34,30.72,124.11,30.83,125.83,31.04z M120.62,267.33c-18.28,0-29.65-10.98-35.77-34.56c-5.66-21.79-6.12-50.85-6.12-83.82
			c0-32.68,0.57-62.08,6.05-83.48c1.78,9.08,6.44,19.52,14.14,31.7c13.68,21.64,35.58,46.78,58.75,73.4l4.38,5.04l0.09,0.16l0,0.14
			l0.21,0.25c-0.35,22.55-1.62,47.67-7.93,65.12C148,259.05,137.26,267.33,120.62,267.33z M171.09,177.22l-2.81-3.24l0-0.29
			l-0.12-0.13c0.1-8.05,0.1-16.39,0.1-24.46c0-40.39-0.02-79.05-11.96-102.24c16.66,12.84,35.76,32.36,58.39,55.52
			c5.65,5.78,11.49,11.76,17.61,17.96c2.01,2.04,4.02,4.07,6.01,6.1l0,0.16l0.52,0.55c-0.11,7.64-0.13,15.31-0.13,21.88
			c0,46.33,1.38,84.95,14.93,106.35C231.95,241.83,205.22,216.54,171.09,177.22z M328.2,149.85c0,29.51-0.04,57.71-4.61,79.13
			c-6.75-28.42-39.72-64.33-78.83-104.18l0.01-0.55l-0.16-0.16c0.42-22.86,1.79-48.46,8.33-66.71
			c6.53-18.24,17.13-26.73,33.38-26.73c18.91,0,30.47,10.97,36.37,34.53c5.51,22.01,5.51,52.04,5.51,83.85V149.85z"/>
	</g>
</g>
</svg>
